<svg width="53" height="53" viewBox="0 0 53 53" fill="none" xmlns="http://www.w3.org/2000/svg">
<path d="M4.1834 0.628036C2.49121 1.38828 0.832206 3.2393 0.400864 4.85894C-0.0968376 6.57774 -0.0968376 46.3085 0.400864 48.0273C0.832206 49.647 2.49121 51.498 4.1834 52.2582C5.14562 52.721 6.34011 52.8862 8.59636 52.8862H11.6489V51.2335V49.5808H8.46364C5.41106 49.5808 5.24516 49.5478 4.31612 48.6223C3.70014 48.0086 3.3539 47.175 3.3539 46.3055V26.4431L3.5117 6.45465C3.51726 5.74987 3.7411 5.06412 4.15241 4.49177L4.18448 4.44715C4.27209 4.32523 4.36957 4.21072 4.47593 4.10476C4.98981 3.59283 5.68561 3.3054 6.41097 3.3054H12.6112H19.944V9.48648C19.944 15.0395 20.0103 15.7998 20.6407 17.0558C21.1384 18.0805 21.7025 18.6424 22.7311 19.1382C23.9919 19.7662 24.7551 19.8323 30.3293 19.8323H36.534V25.6168V31.4012H38.193H39.852V23.7988C39.852 17.9813 39.7525 15.932 39.3875 15.1056C38.7903 13.7504 25.7173 0.793308 24.4896 0.330551C23.9256 0.132229 20.0103 1.52588e-05 14.5356 1.52588e-05C6.53919 1.52588e-05 5.3447 0.0661201 4.1834 0.628036ZM30.5616 16.4608C26.8122 16.4939 24.3237 16.4278 23.9256 16.1964C23.2952 15.8659 23.262 15.4692 23.262 9.48648V3.14014L29.898 9.75091L36.534 16.3617L30.5616 16.4608Z" fill="#E5E5E5"/>
<path d="M45.2801 36.1113C44.3477 36.1113 43.5848 36.8713 43.5848 37.8002V44.5556V51.311C43.5848 52.2398 44.3477 52.9998 45.2801 52.9998C46.2125 52.9998 46.9754 52.2398 46.9754 51.311V46.2444H50.366C51.2984 46.2444 52.0613 45.4844 52.0613 44.5556C52.0613 43.6267 51.2984 42.8667 50.366 42.8667H46.9754V39.489H50.366C51.2984 39.489 52.0613 38.729 52.0613 37.8002C52.0613 36.8713 51.2984 36.1113 50.366 36.1113H45.2801Z" fill="#CE0E2D"/>
<path fill-rule="evenodd" clip-rule="evenodd" d="M31.7177 36.1113H35.1083C37.9161 36.1113 40.1942 38.3807 40.1942 41.1779V47.9333C40.1942 50.7304 37.9161 52.9998 35.1083 52.9998H31.7177C30.7853 52.9998 30.0224 52.2398 30.0224 51.311V37.8002C30.0224 36.8713 30.7853 36.1113 31.7177 36.1113ZM36.8036 47.9333C36.8036 48.8621 36.0407 49.6221 35.1083 49.6221H33.413V39.489H35.1083C36.0407 39.489 36.8036 40.249 36.8036 41.1779V47.9333Z" fill="#CE0E2D"/>
<path fill-rule="evenodd" clip-rule="evenodd" d="M18.1553 36.1113H21.5459C24.82 36.1113 27.4795 38.7607 27.4795 42.0223C27.4795 45.2839 24.82 47.9333 21.5459 47.9333H19.8506V51.311C19.8506 52.2398 19.0877 52.9998 18.1553 52.9998C17.2229 52.9998 16.46 52.2398 16.46 51.311V46.2444V37.8002C16.46 36.8713 17.2229 36.1113 18.1553 36.1113ZM24.0889 42.0223C24.0889 43.4261 22.9551 44.5556 21.5459 44.5556H19.8506V39.489H21.5459C22.9551 39.489 24.0889 40.6184 24.0889 42.0223Z" fill="#CE0E2D"/>
</svg>
