<svg width="42" height="54" viewBox="0 0 42 54" fill="none" xmlns="http://www.w3.org/2000/svg">
<path d="M4.30884 1.47703C2.56558 2.2389 0.856493 4.09391 0.412132 5.71703C-0.100593 7.43953 -0.100593 47.2558 0.412132 48.9783C0.856493 50.6014 2.56558 52.4564 4.30884 53.2183C5.30011 53.682 6.53065 53.8477 8.855 53.8477H11.9997H41.0541V50.5352H11.9997H8.71828C5.57356 50.5352 5.40265 50.502 4.44557 49.5745C3.81195 48.9605 3.4543 48.1159 3.4543 47.2335V27.3477L3.61675 7.33068C3.62255 6.6157 3.85449 5.9209 4.27933 5.34581L4.30663 5.30885C4.3991 5.18369 4.50173 5.06635 4.61349 4.95805C5.14155 4.44631 5.84803 4.16015 6.58337 4.16015H12.991H20.5451V10.3545C20.5451 15.9195 20.6135 16.6814 21.2629 17.9402C21.7757 18.967 22.3568 19.5302 23.4164 20.027C24.7153 20.6564 25.5015 20.7227 31.244 20.7227H37.636V26.5195V32.3164V51.1561L39.5074 50.5352H41.0541V32.3164V24.6977C41.0541 18.8677 40.9516 16.8139 40.5756 15.9858C39.9603 14.6277 26.4927 1.64265 25.228 1.17891C24.6469 0.980152 20.6135 0.847656 14.9735 0.847656C6.73574 0.847656 5.5052 0.913902 4.30884 1.47703ZM31.4833 17.3439C27.6207 17.377 25.0571 17.3108 24.6469 17.0789C23.9975 16.7477 23.9633 16.3502 23.9633 10.3545V3.99453L30.7996 10.6195L37.636 17.2445L31.4833 17.3439Z" fill="#E5E5E5"/>
<path d="M9.54665 25.5483C10.9032 25.1537 12.3346 25.9013 12.7405 27.2201L15.4109 35.8802L18.0814 27.2201C18.4125 26.1713 19.4059 25.4444 20.5382 25.4444C21.6705 25.4444 22.6745 26.1609 22.995 27.2201L25.6654 35.8802L28.3359 27.2201C28.7418 25.9013 30.1731 25.1537 31.5297 25.5483C32.8863 25.9428 33.6554 27.3343 33.2495 28.653L28.1222 45.2673C27.7911 46.3161 26.7977 47.043 25.6654 47.043C24.5332 47.043 23.5291 46.3265 23.2086 45.2673L20.5382 36.6071L17.8677 45.2673C17.5366 46.3161 16.5432 47.043 15.4109 47.043C14.2787 47.043 13.2746 46.3265 12.9541 45.2673L7.82688 28.653C7.42098 27.3343 8.19007 25.9428 9.54665 25.5483Z" fill="#0075C9"/>
</svg>
