<svg width="53" height="54" viewBox="0 0 53 54" fill="none" xmlns="http://www.w3.org/2000/svg">
<path d="M4.09822 0.912426C2.44072 1.67418 0.815714 3.5289 0.393214 5.15177C-0.0942873 6.874 -0.0942873 46.6841 0.393214 48.4063C0.815714 50.0292 2.44072 51.8839 4.09822 52.6456C5.04072 53.1093 6.21072 53.2749 8.42073 53.2749H11.4107V51.6189V49.9629H8.29073C5.30072 49.9629 5.13822 49.9298 4.22822 49.0024C3.62414 48.3868 3.28572 47.5588 3.28572 46.6963V26.779L3.44037 6.7392C3.44577 6.03988 3.66399 5.35877 4.06601 4.78651L4.10186 4.73548C4.18596 4.61577 4.27971 4.50314 4.38218 4.39871C4.88656 3.88472 5.57644 3.59513 6.29657 3.59513H12.3532H19.5357V9.78854C19.5357 15.3527 19.6007 16.1144 20.2182 17.373C20.7057 18.3997 21.2582 18.9627 22.2657 19.4595C23.5008 20.0888 24.2483 20.1551 29.7083 20.1551H35.7858V25.951V31.747H37.4108H39.0358V24.1294C39.0358 18.3003 38.9383 16.2469 38.5808 15.4189C37.9958 14.061 25.1908 1.07803 23.9883 0.614349C23.4358 0.41563 19.6007 0.28315 14.2382 0.28315C6.40572 0.28315 5.23572 0.349388 4.09822 0.912426ZM29.9358 16.7768C26.2633 16.81 23.8258 16.7437 23.4358 16.5119C22.8183 16.1807 22.7857 15.7832 22.7857 9.78854V3.42953L29.2858 10.0535L35.7858 16.6775L29.9358 16.7768Z" fill="#E5E5E5"/>
<path d="M16.8383 37.311C16.3508 37.8409 16.2858 38.9008 16.2858 45.061C16.2858 53.5066 16.1883 53.2748 19.6983 53.2748C22.7208 53.2748 24.4433 52.4136 25.3533 50.4927C25.9383 49.3004 26.0358 48.4393 26.0358 44.9948C26.0358 39.9606 25.5158 38.4702 23.3058 37.4104C21.4533 36.483 17.6183 36.4168 16.8383 37.311ZM22.1683 40.358C22.7208 40.6892 22.7858 41.0867 22.7858 44.9948C22.7858 49.7309 22.6883 49.9628 20.5433 49.9628H19.5358V44.9948V40.0268H20.5433C21.0958 40.0268 21.8108 40.1924 22.1683 40.358Z" fill="#3CB4E5"/>
<path d="M31.3333 37.3774C29.5458 38.4704 29.2858 39.3977 29.2858 44.995C29.2858 50.5922 29.5458 51.5196 31.3333 52.6125C32.7308 53.5068 35.5908 53.5068 36.9883 52.6125C38.7758 51.5196 39.0358 50.5922 39.0358 44.995C39.0358 39.3977 38.7758 38.4704 36.9883 37.3774C36.3058 36.9137 35.3633 36.715 34.1608 36.715C32.9583 36.715 32.0158 36.9137 31.3333 37.3774ZM35.6233 44.995V49.7973H34.1608H32.6983L32.6008 45.3593C32.5683 42.9084 32.5683 40.3995 32.5683 40.1511C32.5683 39.9027 32.5683 40.1511 34.1527 40.1511H35.6152L35.6233 44.995Z" fill="#3CB4E5"/>
<path d="M44.3334 37.3774C42.5459 38.4704 42.2859 39.3977 42.2859 44.995C42.2859 50.5922 42.5459 51.5196 44.3334 52.6125C45.7309 53.5068 48.5909 53.5068 49.9884 52.6125C51.9059 51.4533 52.7184 48.3732 51.4509 47.214C50.2809 46.121 48.9484 46.9159 48.7209 48.8037C48.6234 49.7311 48.5584 49.7973 47.1609 49.7973H45.6984V44.995V40.1926H47.1609C48.5584 40.1926 48.6234 40.2588 48.7209 41.1862C48.8509 42.3454 49.6309 43.339 50.4109 43.339C51.8734 43.339 52.4909 40.9212 51.5484 39.0003C50.7684 37.5099 49.2734 36.715 47.1609 36.715C45.9584 36.715 45.0159 36.9137 44.3334 37.3774Z" fill="#3CB4E5"/>
</svg>
