<svg width="53" height="54" viewBox="0 0 53 54" fill="none" xmlns="http://www.w3.org/2000/svg">
<path d="M18.9932 35.9678C19.0395 35.9722 19.0834 35.9765 19.125 35.9805C20.2367 36.0899 20.7789 37.2829 21.0756 38.3598C21.163 38.6769 21.2477 38.9949 21.3332 39.3141C21.658 40.1712 22.3593 41.3092 22.3593 41.3092C22.3593 41.3092 23.5833 39.3461 24.3508 37.6313C24.7062 36.8374 25.172 36.0532 26.0394 35.989C27.2429 36.0738 27.894 37.3605 27.8482 38.566C27.8151 39.4362 27.5771 40.2654 27.0859 41.1301C26.6352 41.7677 26.1686 42.3952 25.6846 43.0098C24.9847 43.9942 25.4697 45.2979 26.0822 46.339C26.2618 46.6443 26.4469 46.9396 26.6137 47.1692C27.3672 48.3289 27.7666 49.3893 27.8172 50.5733C27.8677 51.7549 27.2574 53.0183 26.0836 53.1631C25.8722 53.1383 25.694 53.1111 25.5391 53.0775C24.3736 52.8242 23.9285 51.4525 23.7269 50.277C23.6625 49.9016 23.5885 49.5213 23.448 49.1672C23.3111 48.8219 23.1012 48.5336 22.3593 47.8928C21.2062 48.9479 21.2061 49.8754 20.937 51.0801C20.8151 51.5272 20.7171 51.8707 20.5974 52.1568C20.1383 53.2548 18.3632 53.6312 17.5571 52.7556C17.2509 52.4231 17.1398 52.1264 17.0967 51.6764C16.9251 49.8861 17.5174 48.6127 18.6619 46.9991C18.8956 46.7024 19.1293 46.4056 19.3701 46.0998C19.9564 45.2753 20.0355 44.7355 19.8436 44.3741C19.4898 43.4467 19.0287 42.7493 18.441 41.9404C17.691 40.7861 17.2918 39.7301 17.2383 38.5528C17.184 37.3606 17.8053 36.0821 18.9932 35.9678Z" fill="#38D430"/>
<path d="M47.5316 35.8512C47.8924 35.8473 47.8924 35.8473 48.2605 35.8433C48.9806 35.846 49.4213 35.8667 49.75 35.931C50.6718 36.1114 51.5298 36.9493 51.233 37.8404C51.0728 38.3213 50.6783 38.8675 50.2436 39.1281C49.5331 39.5541 48.8682 39.489 47.7967 39.5496C47.3766 39.575 46.9566 39.6005 46.5238 39.6267C46.3849 39.6338 46.2794 39.6505 46.188 39.6712C45.7415 39.7726 45.3178 40.059 45.1355 40.479C45.0624 40.6476 45.0247 40.7768 45.014 40.9113C44.9577 41.6208 45.5538 42.3647 46.2407 42.5511C47.4871 43.0758 48.4985 43.4648 49.4718 44.0108C50.8302 44.7728 51.9102 46.0822 52.0412 47.6341C52.0905 48.2188 52.0482 48.8224 51.9206 49.5073C51.605 50.8554 51.2007 51.5786 50.357 52.0894C48.9367 52.9493 47.1818 52.9958 45.5216 53.0041C45.0801 53.0089 44.6301 52.9991 44.1753 53.0041C43.7847 52.9766 43.5321 52.9605 43.3383 52.922C42.5699 52.7691 42.122 51.8564 42.1775 51.0749C42.2184 50.4986 42.5565 49.9633 43.0661 49.6911C43.732 49.3354 44.3725 49.3987 45.389 49.3482C46.3739 49.3811 46.6792 49.3913 47.1686 49.2181C47.6995 49.0303 48.0296 48.5008 48.0286 47.9376C48.0277 47.4607 47.7434 47.0326 47.3103 46.833C47.1771 46.7717 47.0431 46.7099 46.9076 46.6475C46.4233 46.4145 45.9392 46.1811 45.4553 45.9474C45.2143 45.8376 44.9733 45.7277 44.725 45.6146C43.2267 44.8798 42.4512 44.1838 41.7608 42.9631C41.4285 42.3754 41.1797 41.7027 41.112 41.0309C40.9191 39.1186 42.2062 37.3075 43.9301 36.4577C44.9117 35.9738 46.0163 35.8345 47.5316 35.8512Z" fill="#38D430"/>
<path d="M32.6178 36.0239C33.0801 35.8275 33.8967 35.934 34.3345 36.1802C34.915 36.5067 34.9584 36.9871 34.9795 37.6527C34.9989 38.2626 35.0172 39.0099 35.0106 39.5096C35.0096 39.7955 35.0086 40.0814 35.0076 40.3759C35.0037 41.2907 34.9948 42.2055 34.9858 43.1203C34.9823 43.7398 34.979 44.3593 34.9761 44.9788C34.97 46.1722 34.9612 47.3655 34.9506 48.5589C34.9459 49.0949 35.3859 49.5285 35.9218 49.5154C36.3418 49.5093 36.7619 49.5031 37.1946 49.4968C37.6129 49.4889 38.0311 49.481 38.462 49.4729C38.9602 49.5037 39.2274 49.5202 39.4411 49.597C40.0617 49.8198 40.3091 50.5804 40.3091 51.2397C40.3091 51.8991 40.0312 52.6003 39.4326 52.8767C39.0513 53.0528 38.678 53.0285 37.9457 53.0305C37.6322 53.0313 37.3188 53.0322 36.9959 53.0331C36.6678 53.0305 36.3398 53.0279 36.0019 53.0252C35.6739 53.0278 35.3458 53.0304 35.0079 53.0331C34.5377 53.0318 34.5377 53.0318 34.0581 53.0305C33.7702 53.0297 33.4822 53.0289 33.1856 53.0281C33.1257 53.0208 33.0708 53.0141 33.0201 53.0075C32.0522 52.8823 31.6714 51.7335 31.6694 50.7575C31.6672 50.4466 31.665 50.1356 31.6627 49.8152C31.6641 49.4787 31.6655 49.1421 31.667 48.7954C31.6663 48.4507 31.6656 48.1061 31.6649 47.751C31.6645 47.0214 31.6658 46.2919 31.6687 45.5623C31.6725 44.4427 31.6688 43.3233 31.6642 42.2037C31.6647 41.4961 31.6656 40.7884 31.667 40.0808C31.6656 39.7443 31.6641 39.4077 31.6627 39.061C31.6649 38.75 31.6671 38.4391 31.6694 38.1187C31.6705 37.5683 31.7145 36.993 32.0179 36.5338C32.1823 36.2848 32.3723 36.1281 32.6178 36.0239Z" fill="#38D430"/>
<path d="M4.33919 1.1948C2.58357 1.95668 0.862368 3.81168 0.414857 5.4348C-0.101502 7.15731 -0.101502 46.9736 0.414857 48.6961C0.862368 50.3192 2.58357 52.1742 4.33919 52.9361C5.33748 53.3998 6.57674 53.5654 8.91757 53.5654H12.0846V51.9092V50.2529H8.77987C5.61287 50.2529 5.44075 50.2198 4.47688 49.2923C3.83903 48.6785 3.47859 47.8315 3.47859 46.9463V27.0654L3.64216 7.05227C3.64802 6.33501 3.88195 5.63822 4.3101 5.06273L4.3361 5.02778C4.42979 4.90184 4.53373 4.78386 4.64683 4.67501C5.1783 4.1636 5.88718 3.87793 6.62474 3.87793H13.0829H20.6906V10.0723C20.6906 15.6373 20.7594 16.3992 21.4135 17.6579C21.9298 18.6848 22.515 19.2479 23.5822 19.7448C24.8903 20.3742 25.682 20.4404 31.4652 20.4404H37.9025V26.2373V32.0342H39.6237H41.3449V24.4154C41.3449 18.5854 41.2416 16.5317 40.863 15.7036C40.2434 14.3454 26.6803 1.36043 25.4066 0.896679C24.8214 0.697926 20.7594 0.56543 15.0795 0.56543C6.78329 0.56543 5.54402 0.631676 4.33919 1.1948ZM31.7062 17.0617C27.8163 17.0948 25.2345 17.0286 24.8214 16.7967C24.1674 16.4654 24.1329 16.0679 24.1329 10.0723V3.7123L31.0177 10.3373L37.9025 16.9623L31.7062 17.0617Z" fill="#E5E5E5"/>
</svg>
