<svg width="14" height="11" viewBox="0 0 14 11" fill="none" xmlns="http://www.w3.org/2000/svg">
<path d="M1.3125 0C0.587891 0 0 0.615885 0 1.375C0 1.80755 0.194141 2.21432 0.525 2.475L6.2125 6.94375C6.68008 7.31042 7.31992 7.31042 7.7875 6.94375L13.475 2.475C13.8059 2.21432 14 1.80755 14 1.375C14 0.615885 13.4121 0 12.6875 0H1.3125ZM0 3.78125V9.16667C0 10.1779 0.784766 11 1.75 11H12.25C13.2152 11 14 10.1779 14 9.16667V3.78125L8.575 8.04375C7.64258 8.77708 6.35742 8.77708 5.425 8.04375L0 3.78125Z" fill="#B8B8B8"/>
</svg>
