<svg width="14" height="14" viewBox="0 0 14 14" fill="none" xmlns="http://www.w3.org/2000/svg">
<path d="M12.6875 7C12.6875 10.1418 10.1418 12.6875 7 12.6875C3.8582 12.6875 1.3125 10.1418 1.3125 7C1.3125 3.8582 3.8582 1.3125 7 1.3125C10.1418 1.3125 12.6875 3.8582 12.6875 7ZM0 7C0 10.8664 3.13359 14 7 14C10.8664 14 14 10.8664 14 7C14 3.13359 10.8664 0 7 0C3.13359 0 0 3.13359 0 7ZM6.34375 3.28125V7C6.34375 7.21875 6.45313 7.42383 6.63633 7.54688L9.26133 9.29688C9.56211 9.49922 9.96953 9.41719 10.1719 9.11367C10.3742 8.81016 10.2922 8.40547 9.98867 8.20312L7.65625 6.65V3.28125C7.65625 2.91758 7.36367 2.625 7 2.625C6.63633 2.625 6.34375 2.91758 6.34375 3.28125Z" fill="#B8B8B8"/>
</svg>
