<svg width="60" height="60" viewBox="0 0 60 60" fill="none" xmlns="http://www.w3.org/2000/svg">
<path d="M29.9995 0C13.4315 0 0 13.4317 0 29.9997C0 46.5671 13.4313 60 29.9991 60C46.5669 60 59.9996 46.5671 59.9996 29.9997C59.9996 13.4317 46.5677 0 29.9995 0ZM43.5364 37.9584C42.4424 39.0518 40.6688 39.0524 39.5744 37.9584L29.9225 28.3045L20.2182 38.0076C19.1248 39.101 17.3506 39.1016 16.2562 38.0076C15.71 37.4598 15.4366 36.7434 15.4366 36.0266C15.4366 35.3098 15.71 34.5935 16.2572 34.0473L27.5155 22.788C27.6233 22.6204 27.7469 22.4606 27.8931 22.3144C28.4523 21.7552 29.1883 21.486 29.9223 21.499C30.6547 21.4866 31.3919 21.7552 31.9505 22.315C32.0973 22.4608 32.2203 22.6206 32.3277 22.788L43.5362 33.9965C44.6298 35.0905 44.6306 36.864 43.5364 37.9584Z" fill="#95C11F"/>
</svg>
