<svg width="88" height="88" viewBox="0 0 88 88" fill="none" xmlns="http://www.w3.org/2000/svg">
<path d="M1.92328e-06 43.9998C8.61097e-07 19.6999 19.6998 0.00024328 43.9996 0.000242217C68.2985 0.000241155 88 19.6996 88 43.9992C88 68.2989 68.2985 88.0002 43.9996 88.0002C19.6998 88.0003 2.98548e-06 68.3 1.92328e-06 43.9998ZM55.6724 63.854C57.276 62.2495 57.2769 59.6482 55.6724 58.0431L41.5133 43.8869L55.7445 29.6538C57.3481 28.0501 57.349 25.448 55.7445 23.8429C54.9411 23.0418 53.8904 22.6408 52.8391 22.6408C51.7878 22.6408 50.7371 23.0418 49.936 23.8444L33.4224 40.3566C33.1765 40.5147 32.9422 40.696 32.7278 40.9104C31.9076 41.7306 31.5128 42.81 31.5318 43.8866C31.5137 44.9608 31.9076 46.042 32.7286 46.8613C32.9425 47.0766 33.1768 47.257 33.4224 47.4145L49.8615 63.8537C51.466 65.4577 54.0672 65.4588 55.6724 63.854Z" fill="#95C11F"/>
</svg>
