<svg width="88" height="88" viewBox="0 0 88 88" fill="none" xmlns="http://www.w3.org/2000/svg">
<path d="M88 44.0004C88 68.3004 68.3002 88 44.0004 88C19.7015 88 7.86431e-06 68.3007 8.15408e-06 44.001C8.44385e-06 19.7014 19.7015 -8.44385e-06 44.0004 -8.15408e-06C68.3002 -7.86431e-06 88 19.7002 88 44.0004ZM32.3277 24.1462C30.724 25.7508 30.7231 28.352 32.3277 29.9572L46.4867 44.1134L32.2555 58.3464C30.6519 59.9501 30.651 62.5522 32.2555 64.1574C33.0589 64.9584 34.1096 65.3594 35.1609 65.3594C36.2122 65.3594 37.2629 64.9584 38.064 64.1559L54.5776 47.6436C54.8235 47.4855 55.0578 47.3042 55.2723 47.0898C56.0924 46.2697 56.4872 45.1902 56.4682 44.1137C56.4863 43.0395 56.0924 41.9583 55.2714 41.139C55.0575 40.9237 54.8232 40.7433 54.5776 40.5858L38.1385 24.1465C36.534 22.5426 33.9328 22.5414 32.3277 24.1462Z" fill="#95C11F"/>
</svg>
